# xmcd
#
# Track frame offsets:
# 150
# 27753
# 59028
# 89943
# 106398
# 128595
# 147381
# 162354
# 186240
# 211212
# 235392
# 257313
# 270162
# 284112
# 317976
#
# Disc length: 4563 seconds
#
#
# Revision: 1
# Processed by: cddbd v1.5.2PL0 Copyright (c) Steve Scherf et al.
# Submitted via: FreeRIP 2.951 
#
DISCID=e511d10f
DTITLE=Compilation Blues - Blues CD3 - Contemporan Blues
DYEAR=2005
DGENRE=Blues
TTITLE0=STEVIE RAY VAUGHAN - AIN'GONE'N GIVE UP ON LOVE
TTITLE1=WILLIAM CLARKE - IT'S BEEN A LONG TIME
TTITLE2=TOMMY CASTRO - IT SERVES YOU RIGHT TO SUFFER
TTITLE3=BIG BILL MORGANFIELD - WHISKEY
TTITLE4=AMAR SUNDY - MEN IN TROUBLE
TTITLE5=DUKE ROBILLARD - TORE UP
TTITLE6=ERIC BIBB - GRATEFULLY BLUE
TTITLE7=ALBERT COLLINS - COLD, COLD FEELING
TTITLE8=LUTHER ALLISON - STILL CALLED THE BLUES
TTITLE9=LONNIE BROOKS - IN THE DARK
TTITLE10=LUCKY PETERSON - IS IT BECAUSE I M BLACK
TTITLE11=NICO WAYNE TOUSSAINT - HOT SOMETIMES
TTITLE12=KEB'MO - MOMMA WHERE'S MY DADDY
TTITLE13=TINO GONZALES - NO MORE MISERY
TTITLE14=POPA CHUBY - UN-AMERICAN BLUES
EXTD=
EXTT0=
EXTT1=
EXTT2=
EXTT3=
EXTT4=
EXTT5=
EXTT6=
EXTT7=
EXTT8=
EXTT9=
EXTT10=
EXTT11=
EXTT12=
EXTT13=
EXTT14=
PLAYORDER=
